<svg xmlns="http://www.w3.org/2000/svg" fill="#363b29" viewBox="0 0 66 30">
  <path d="M50.97 0c4.22 0 7.77 1.45 10.66 4.34A14.5 14.5 0 0 1 66 15c0 4.21-1.43 7.72-4.29 10.53-2.82 2.9-6.7 4.5-10.74 4.47a14.5 14.5 0 0 1-10.55-4.42A14.42 14.42 0 0 1 36 15c0-4.11 1.47-7.66 4.42-10.66C43.32 1.44 46.83 0 50.97 0Zm.06 2.7c-3.41 0-6.3 1.2-8.65 3.6A12.07 12.07 0 0 0 38.7 15c0 3.32 1.2 6.2 3.64 8.63a11.85 11.85 0 0 0 8.68 3.64c3.34 0 6.25-1.23 8.73-3.67a11.42 11.42 0 0 0 3.53-8.6c0-3.41-1.2-6.31-3.58-8.7a11.82 11.82 0 0 0-8.68-3.6Zm4.02 8.58v6.13h-1.72v7.29h-4.66v-7.3h-1.71v-6.13c0-.26.1-.5.28-.69a.93.93 0 0 1 .68-.28h6.16c.25 0 .47.1.67.28.2.18.3.43.3.69ZM48.9 7.42c0-1.41.7-2.12 2.09-2.12s2.09.7 2.09 2.12c0 1.4-.7 2.09-2.09 2.09-1.4 0-2.09-.7-2.09-2.09ZM14.97 0c4.2 0 7.77 1.47 10.72 4.4a14.43 14.43 0 0 1 3.21 4.83c.73 1.81 1.1 3.73 1.1 5.77 0 2.05-.36 3.98-1.08 5.77a13.77 13.77 0 0 1-3.2 4.76A15.42 15.42 0 0 1 14.97 30c-1.98 0-3.88-.38-5.69-1.14a15.09 15.09 0 0 1-4.87-3.3A14.71 14.71 0 0 1 0 15 15.06 15.06 0 0 1 4.44 4.37 14.18 14.18 0 0 1 14.98 0Zm.06 2.7c-3.43 0-6.32 1.2-8.65 3.6a12.9 12.9 0 0 0-2.73 4.03 11.81 11.81 0 0 0 0 9.32c.64 1.5 1.57 2.85 2.73 4a12.36 12.36 0 0 0 3.99 2.67 12.03 12.03 0 0 0 9.33-.02 12.95 12.95 0 0 0 4.09-2.7 11.53 11.53 0 0 0 3.5-8.6 12 12 0 0 0-3.56-8.68 11.87 11.87 0 0 0-8.7-3.6Zm-.2 9.8-2 1.05c-.17-.38-.45-.7-.8-.93-.3-.18-.6-.27-.86-.27-1.34 0-2.01.88-2.01 2.65 0 .8.17 1.45.5 1.93.35.48.85.72 1.5.72.88 0 1.5-.43 1.86-1.28l1.84.93a4.4 4.4 0 0 1-3.93 2.36c-1.2.06-2.38-.39-3.24-1.23A4.63 4.63 0 0 1 6.45 15c0-1.43.42-2.56 1.25-3.4a4.24 4.24 0 0 1 3.15-1.26c1.85 0 3.18.72 3.99 2.17Zm8.66 0-1.98 1.05c-.17-.38-.45-.7-.8-.93a1.82 1.82 0 0 0-.89-.27c-1.34 0-2 .88-2 2.65 0 .8.16 1.45.5 1.93.34.48.84.72 1.5.72.88 0 1.5-.43 1.85-1.28l1.87.93a4.6 4.6 0 0 1-1.66 1.73c-.7.42-1.45.63-2.27.63a4.36 4.36 0 0 1-3.26-1.23A4.66 4.66 0 0 1 15.13 15c0-1.43.42-2.56 1.25-3.4a4.24 4.24 0 0 1 3.15-1.26c1.85 0 3.18.72 3.96 2.17Z"/>
</svg>
